<svg xmlns="http://www.w3.org/2000/svg" xmlns:xlink="http://www.w3.org/1999/xlink" width="100%" height="100%" version="1.1" viewBox="0 0 24 24" xml:space="preserve" style="fill-rule:evenodd;clip-rule:evenodd;stroke-linejoin:round;stroke-miterlimit:2"><rect width="24" height="24" x="0" y="0" style="fill:none;fill-rule:nonzero"/><path d="M7.443,5.35C8.082,5.35 8.673,5.4 9.213,5.548C9.703,5.638 10.171,5.823 10.59,6.092C10.984,6.339 11.279,6.686 11.475,7.131C11.672,7.576 11.77,8.121 11.77,8.714C11.77,9.407 11.623,10 11.279,10.445C10.984,10.891 10.492,11.286 9.902,11.583C10.738,11.831 11.377,12.276 11.77,12.869C12.164,13.463 12.41,14.205 12.41,15.046C12.41,15.739 12.262,16.332 12.016,16.827C11.77,17.322 11.377,17.767 10.934,18.064C10.453,18.382 9.921,18.616 9.361,18.756C8.771,18.905 8.181,19.004 7.591,19.004L1,19.004L1,5.35L7.443,5.35ZM7.049,10.89C7.59,10.89 8.033,10.742 8.377,10.495C8.721,10.248 8.869,9.802 8.869,9.258C8.869,8.961 8.819,8.664 8.721,8.467C8.623,8.269 8.475,8.12 8.279,7.972C8.082,7.873 7.885,7.774 7.639,7.725C7.393,7.675 7.148,7.675 6.852,7.675L4,7.675L4,10.891L7.05,10.891L7.049,10.89ZM7.197,16.728C7.492,16.728 7.787,16.678 8.033,16.629C8.281,16.582 8.516,16.48 8.721,16.332C8.921,16.187 9.089,16.002 9.213,15.788C9.311,15.541 9.41,15.244 9.41,14.898C9.41,14.205 9.213,13.71 8.82,13.364C8.426,13.067 7.885,12.919 7.246,12.919L4,12.919L4,16.729L7.197,16.729L7.197,16.728ZM16.689,16.678C17.082,17.074 17.672,17.272 18.459,17.272C19,17.272 19.492,17.124 19.885,16.877C20.279,16.58 20.525,16.283 20.623,15.986L23.033,15.986C22.639,17.173 22.049,18.014 21.263,18.558C20.475,19.053 19.541,19.35 18.41,19.35C17.686,19.352 16.969,19.218 16.295,18.954C15.689,18.727 15.148,18.353 14.721,17.866C14.264,17.411 13.927,16.85 13.738,16.233C13.492,15.59 13.393,14.898 13.393,14.106C13.393,13.364 13.492,12.672 13.738,12.028C13.975,11.408 14.325,10.838 14.77,10.346C15.213,9.901 15.754,9.506 16.344,9.258C17.001,8.994 17.702,8.86 18.41,8.862C19.246,8.862 19.984,9.011 20.623,9.357C21.263,9.703 21.754,10.099 22.148,10.693C22.55,11.264 22.849,11.9 23.033,12.573C23.131,13.265 23.18,13.958 23.131,14.749L16,14.749C16,15.541 16.295,16.283 16.689,16.679L16.689,16.678ZM19.787,11.484C19.443,11.138 18.902,10.94 18.262,10.94C17.82,10.94 17.475,11.039 17.18,11.187C16.885,11.336 16.689,11.534 16.492,11.732C16.311,11.923 16.191,12.164 16.148,12.424C16.098,12.672 16.049,12.869 16.049,13.067L20.475,13.067C20.377,12.325 20.131,11.831 19.787,11.484ZM15.459,6.29L20.967,6.29L20.967,7.626L15.46,7.626L15.46,6.29L15.459,6.29Z" style="fill:#060d30;fill-rule:nonzero"/></svg>