<?xml version="1.0" encoding="UTF-8" standalone="no"?>
<!DOCTYPE svg PUBLIC "-//W3C//DTD SVG 1.1//EN" "http://www.w3.org/Graphics/SVG/1.1/DTD/svg11.dtd">
<svg width="100%" height="100%" viewBox="0 0 24 24" version="1.1" xmlns="http://www.w3.org/2000/svg" xmlns:xlink="http://www.w3.org/1999/xlink" xml:space="preserve" xmlns:serif="http://www.serif.com/" style="fill-rule:evenodd;clip-rule:evenodd;stroke-linejoin:round;stroke-miterlimit:2;">
    <rect x="0" y="0" width="24" height="24" style="fill:none;fill-rule:nonzero;"/>
    <path d="M12,10.202L9.303,12L12,13.798L14.697,12L12,10.202ZM16.5,10.798L19.197,9L13,4.869L13,8.465L16.5,10.798ZM20,10.868L18.303,12L20,13.131L20,10.868ZM16.5,13.202L13,15.535L13,19.131L19.197,15L16.5,13.202ZM11,8.465L11,4.869L4.803,9L7.5,10.798L11,8.465ZM4.803,15L11,19.131L11,15.535L7.5,13.202L4.803,15ZM5.697,12L4,10.869L4,13.131L5.697,12ZM2,9C2,8.666 2.167,8.353 2.445,8.168L11.445,2.168C11.78,1.944 12.22,1.944 12.555,2.168L21.555,8.168C21.833,8.353 22,8.666 22,9L22,15C22,15.334 21.833,15.647 21.555,15.832L12.555,21.832C12.22,22.056 11.78,22.056 11.445,21.832L2.445,15.832C2.167,15.647 2,15.334 2,15L2,9Z" style="fill:rgb(6,13,48);fill-rule:nonzero;"/>
</svg>
