<?xml version="1.0" encoding="UTF-8" standalone="no"?>
<!DOCTYPE svg PUBLIC "-//W3C//DTD SVG 1.1//EN" "http://www.w3.org/Graphics/SVG/1.1/DTD/svg11.dtd">
<svg width="100%" height="100%" viewBox="0 0 24 24" version="1.1" xmlns="http://www.w3.org/2000/svg" xmlns:xlink="http://www.w3.org/1999/xlink" xml:space="preserve" xmlns:serif="http://www.serif.com/" style="fill-rule:evenodd;clip-rule:evenodd;stroke-linejoin:round;stroke-miterlimit:2;">
    <rect x="0" y="0" width="24" height="24" style="fill:none;fill-rule:nonzero;"/>
    <path d="M10,6L10,8L5,8L5,19L16,19L16,14L18,14L18,20C18,20.549 17.549,21 17,21L4,21C3.451,21 3,20.549 3,20L3,7C3,6.451 3.451,6 4,6L10,6ZM21,3L21,12L17.206,8.207L11.207,14.207L9.793,12.793L15.792,6.793L12,3L21,3Z" style="fill:rgb(6,13,48);fill-rule:nonzero;"/>
</svg>
